name ./resultDataOpenSim/trcMotMarkerGrf/sub06/grf-14-02.mot
datacolumns 19
datarows 12
range 0.56400000 0.60800000
endheader

                time	     ground_force_vx	     ground_force_vy	     ground_force_vz	     ground_force_px	     ground_force_py	     ground_force_pz	   l_ground_force_vx	   l_ground_force_vy	   l_ground_force_vz	   l_ground_force_px	   l_ground_force_py	   l_ground_force_pz	     ground_torque_x	     ground_torque_y	     ground_torque_z	   l_ground_torque_x	   l_ground_torque_y	   l_ground_torque_z	
          0.56400000	        136.70790852	        784.98845381	        -31.18647087	         -0.76659004	          0.00000000	          0.09669617	          0.00000000	          0.00000000	          0.00000000	          0.00000000	          0.00000000	          0.00000000	          0.00000000	          1.86828455	          0.00000000	          0.00000000	          0.00000000	          0.00000000	
          0.56800000	        144.04043344	        797.82173773	        -32.73082992	         -0.76613799	          0.00000000	          0.09674640	          0.00000000	          0.00000000	          0.00000000	          0.00000000	          0.00000000	          0.00000000	          0.00000000	          1.74908801	          0.00000000	          0.00000000	          0.00000000	          0.00000000	
          0.57200000	        151.70739103	        809.41138032	        -34.43089277	         -0.76574818	          0.00000000	          0.09679392	          0.00000000	          0.00000000	          0.00000000	          0.00000000	          0.00000000	          0.00000000	          0.00000000	          1.59700861	          0.00000000	          0.00000000	          0.00000000	          0.00000000	
          0.57600000	        159.61471698	        819.39364684	        -36.13484390	         -0.76535849	          0.00000000	          0.09685384	          0.00000000	          0.00000000	          0.00000000	          0.00000000	          0.00000000	          0.00000000	          0.00000000	          1.42627241	          0.00000000	          0.00000000	          0.00000000	          0.00000000	
          0.58000000	        167.60088706	        827.38495110	        -37.68066042	         -0.76489389	          0.00000000	          0.09694629	          0.00000000	          0.00000000	          0.00000000	          0.00000000	          0.00000000	          0.00000000	          0.00000000	          1.25157929	          0.00000000	          0.00000000	          0.00000000	          0.00000000	
          0.58400000	        175.51754776	        833.21259929	        -38.94462565	         -0.76433931	          0.00000000	          0.09706610	          0.00000000	          0.00000000	          0.00000000	          0.00000000	          0.00000000	          0.00000000	          0.00000000	          1.08518552	          0.00000000	          0.00000000	          0.00000000	          0.00000000	
          0.58800000	        183.25761470	        836.93552627	        -39.87680885	         -0.76375604	          0.00000000	          0.09717557	          0.00000000	          0.00000000	          0.00000000	          0.00000000	          0.00000000	          0.00000000	          0.00000000	          0.93472129	          0.00000000	          0.00000000	          0.00000000	          0.00000000	
          0.59200000	        190.73136862	        838.62069224	        -40.48623314	         -0.76320436	          0.00000000	          0.09724402	          0.00000000	          0.00000000	          0.00000000	          0.00000000	          0.00000000	          0.00000000	          0.00000000	          0.80219242	          0.00000000	          0.00000000	          0.00000000	          0.00000000	
          0.59600000	        197.84133164	        838.16473909	        -40.80647815	         -0.76267659	          0.00000000	          0.09727624	          0.00000000	          0.00000000	          0.00000000	          0.00000000	          0.00000000	          0.00000000	          0.00000000	          0.68436684	          0.00000000	          0.00000000	          0.00000000	          0.00000000	
          0.60000000	        204.49503253	        835.36196584	        -40.88483724	         -0.76211345	          0.00000000	          0.09729207	          0.00000000	          0.00000000	          0.00000000	          0.00000000	          0.00000000	          0.00000000	          0.00000000	          0.57435352	          0.00000000	          0.00000000	          0.00000000	          0.00000000	
          0.60400000	        210.64342798	        830.09158462	        -40.78938509	         -0.76147695	          0.00000000	          0.09729795	          0.00000000	          0.00000000	          0.00000000	          0.00000000	          0.00000000	          0.00000000	          0.00000000	          0.46379641	          0.00000000	          0.00000000	          0.00000000	          0.00000000	
          0.60800000	        216.29800143	        822.40860246	        -40.59231292	         -0.76080465	          0.00000000	          0.09728313	          0.00000000	          0.00000000	          0.00000000	          0.00000000	          0.00000000	          0.00000000	          0.00000000	          0.34499515	          0.00000000	          0.00000000	          0.00000000	          0.00000000	
